<svg id="Layer_1" data-name="Layer 1" xmlns="http://www.w3.org/2000/svg" viewBox="0 0 800 800"><defs><style>.cls-1{fill:#666;}</style></defs><title>logo-bb</title><path class="cls-1" d="M308.66,463.3a62.4,62.4,0,0,1-62.86-62.38V265.41a57.15,57.15,0,0,0-57.14-57.15h0V400.92q0,5.06.42,10c5.14,61,56.8,109.08,119.58,109.08a120.14,120.14,0,0,0,84.48-34.58,128.43,128.43,0,0,1-28.59-55.95A62.92,62.92,0,0,1,308.66,463.3Z"/><path class="cls-1" d="M610.92,390.92c-5.14-61-56.8-109.08-119.58-109.08a119.94,119.94,0,0,0-62.86,17.68V265.41a57.15,57.15,0,0,0-57.14-57.15h0v79.6a130.82,130.82,0,0,1,35.52,28.56,129.23,129.23,0,0,1,21.62,34.42,126.78,126.78,0,0,1,7,21.53A62.82,62.82,0,0,1,554.2,400.92c0,34.45-28.14,62.38-62.86,62.38-33.46,0-60.8-25.95-62.74-58.67-.07-1.23-.12-2.46-.12-3.71h.18c0-1.24,0-2.48-.06-3.71,0-.95-.07-1.89-.12-2.84A118,118,0,0,0,400,323.78,120.52,120.52,0,0,0,255.8,294v73.15a63,63,0,0,1,115.54,29.2l.06.83c.07,1.23.12,2.46.12,3.71h-.18c0,1.24,0,2.48.06,3.71A118,118,0,0,0,400,478.06,120.14,120.14,0,0,0,491.34,520c66.17,0,120-53.42,120-119.08Q611.34,395.87,610.92,390.92Z"/></svg>